<mxfile host="app.diagrams.net" modified="2024-04-01T14:59:19.791Z" agent="Mozilla/5.0 (Windows NT 10.0; Win64; x64) AppleWebKit/537.36 (KHTML, like Gecko) Chrome/123.0.0.0 Safari/537.36" etag="ttprBjgZnygbsPNrm4Ek" version="24.2.1" type="device">
  <diagram name="Страница — 1" id="bfPGIGrMFw1IP6BL5aJk">
    <mxGraphModel dx="1500" dy="796" grid="1" gridSize="10" guides="1" tooltips="1" connect="1" arrows="1" fold="1" page="1" pageScale="1" pageWidth="827" pageHeight="1169" math="0" shadow="0">
      <root>
        <mxCell id="0" />
        <mxCell id="1" parent="0" />
        <mxCell id="QFFZkPmLiqUm_dpymTwv-3" value="" style="edgeStyle=orthogonalEdgeStyle;rounded=0;orthogonalLoop=1;jettySize=auto;html=1;shape=link;" parent="1" source="QFFZkPmLiqUm_dpymTwv-1" target="QFFZkPmLiqUm_dpymTwv-2" edge="1">
          <mxGeometry relative="1" as="geometry" />
        </mxCell>
        <mxCell id="QFFZkPmLiqUm_dpymTwv-1" value="&lt;font style=&quot;vertical-align: inherit;&quot;&gt;&lt;font style=&quot;vertical-align: inherit;&quot;&gt;пользовательский интерфейс&lt;/font&gt;&lt;/font&gt;" style="rounded=0;whiteSpace=wrap;html=1;" parent="1" vertex="1">
          <mxGeometry x="40" y="80" width="120" height="60" as="geometry" />
        </mxCell>
        <mxCell id="QFFZkPmLiqUm_dpymTwv-2" value="" style="whiteSpace=wrap;html=1;rounded=0;" parent="1" vertex="1">
          <mxGeometry x="40" y="660" width="120" height="30" as="geometry" />
        </mxCell>
        <mxCell id="QFFZkPmLiqUm_dpymTwv-4" value="" style="endArrow=classic;html=1;rounded=0;" parent="1" edge="1">
          <mxGeometry relative="1" as="geometry">
            <mxPoint x="100" y="190" as="sourcePoint" />
            <mxPoint x="260" y="190" as="targetPoint" />
          </mxGeometry>
        </mxCell>
        <mxCell id="QFFZkPmLiqUm_dpymTwv-5" value="&lt;font style=&quot;vertical-align: inherit;&quot;&gt;&lt;font style=&quot;vertical-align: inherit;&quot;&gt;Добавить новый продукт&lt;/font&gt;&lt;/font&gt;" style="edgeLabel;resizable=0;html=1;;align=center;verticalAlign=middle;" parent="QFFZkPmLiqUm_dpymTwv-4" connectable="0" vertex="1">
          <mxGeometry relative="1" as="geometry" />
        </mxCell>
        <mxCell id="QFFZkPmLiqUm_dpymTwv-8" value="" style="edgeStyle=orthogonalEdgeStyle;rounded=0;orthogonalLoop=1;jettySize=auto;html=1;" parent="1" source="QFFZkPmLiqUm_dpymTwv-6" target="QFFZkPmLiqUm_dpymTwv-7" edge="1">
          <mxGeometry relative="1" as="geometry" />
        </mxCell>
        <mxCell id="QFFZkPmLiqUm_dpymTwv-6" value="&lt;font style=&quot;vertical-align: inherit;&quot;&gt;&lt;font style=&quot;vertical-align: inherit;&quot;&gt;Каталог продуктов&lt;/font&gt;&lt;/font&gt;" style="rounded=0;whiteSpace=wrap;html=1;" parent="1" vertex="1">
          <mxGeometry x="354" y="80" width="120" height="60" as="geometry" />
        </mxCell>
        <mxCell id="QFFZkPmLiqUm_dpymTwv-7" value="" style="whiteSpace=wrap;html=1;rounded=0;" parent="1" vertex="1">
          <mxGeometry x="354" y="660" width="120" height="30" as="geometry" />
        </mxCell>
        <mxCell id="jziA92S2i_cvQdHo4Uy4-5" value="" style="edgeStyle=orthogonalEdgeStyle;rounded=0;orthogonalLoop=1;jettySize=auto;html=1;" parent="1" source="QFFZkPmLiqUm_dpymTwv-9" target="jziA92S2i_cvQdHo4Uy4-4" edge="1">
          <mxGeometry relative="1" as="geometry" />
        </mxCell>
        <mxCell id="QFFZkPmLiqUm_dpymTwv-9" value="XML" style="rounded=0;whiteSpace=wrap;html=1;" parent="1" vertex="1">
          <mxGeometry x="510" y="80" width="120" height="60" as="geometry" />
        </mxCell>
        <mxCell id="jziA92S2i_cvQdHo4Uy4-3" value="" style="edgeStyle=orthogonalEdgeStyle;rounded=0;orthogonalLoop=1;jettySize=auto;html=1;" parent="1" source="QFFZkPmLiqUm_dpymTwv-10" target="jziA92S2i_cvQdHo4Uy4-2" edge="1">
          <mxGeometry relative="1" as="geometry" />
        </mxCell>
        <mxCell id="QFFZkPmLiqUm_dpymTwv-10" value="Файлы" style="rounded=0;whiteSpace=wrap;html=1;" parent="1" vertex="1">
          <mxGeometry x="670" y="80" width="120" height="60" as="geometry" />
        </mxCell>
        <mxCell id="QFFZkPmLiqUm_dpymTwv-13" value="" style="edgeStyle=orthogonalEdgeStyle;rounded=0;orthogonalLoop=1;jettySize=auto;html=1;" parent="1" source="QFFZkPmLiqUm_dpymTwv-11" target="QFFZkPmLiqUm_dpymTwv-12" edge="1">
          <mxGeometry relative="1" as="geometry" />
        </mxCell>
        <mxCell id="QFFZkPmLiqUm_dpymTwv-11" value="Приложение" style="rounded=0;whiteSpace=wrap;html=1;" parent="1" vertex="1">
          <mxGeometry x="200" y="80" width="120" height="60" as="geometry" />
        </mxCell>
        <mxCell id="QFFZkPmLiqUm_dpymTwv-12" value="" style="rounded=0;whiteSpace=wrap;html=1;" parent="1" vertex="1">
          <mxGeometry x="200" y="660" width="120" height="30" as="geometry" />
        </mxCell>
        <mxCell id="QFFZkPmLiqUm_dpymTwv-14" value="" style="endArrow=classic;html=1;rounded=0;" parent="1" edge="1">
          <mxGeometry relative="1" as="geometry">
            <mxPoint x="260" y="190" as="sourcePoint" />
            <mxPoint x="410" y="190" as="targetPoint" />
          </mxGeometry>
        </mxCell>
        <mxCell id="QFFZkPmLiqUm_dpymTwv-15" value="&lt;p style=&quot;line-height: 120%; font-size: 8px;&quot;&gt;Создание экземпляра продукта&lt;/p&gt;" style="edgeLabel;resizable=0;html=1;;align=center;verticalAlign=middle;" parent="QFFZkPmLiqUm_dpymTwv-14" connectable="0" vertex="1">
          <mxGeometry relative="1" as="geometry" />
        </mxCell>
        <mxCell id="jziA92S2i_cvQdHo4Uy4-2" value="" style="whiteSpace=wrap;html=1;rounded=0;" parent="1" vertex="1">
          <mxGeometry x="670" y="660" width="120" height="30" as="geometry" />
        </mxCell>
        <mxCell id="jziA92S2i_cvQdHo4Uy4-4" value="" style="whiteSpace=wrap;html=1;rounded=0;" parent="1" vertex="1">
          <mxGeometry x="510" y="660" width="120" height="30" as="geometry" />
        </mxCell>
        <mxCell id="jziA92S2i_cvQdHo4Uy4-6" value="" style="endArrow=classic;html=1;rounded=0;" parent="1" edge="1">
          <mxGeometry relative="1" as="geometry">
            <mxPoint x="570" y="340" as="sourcePoint" />
            <mxPoint x="730" y="340" as="targetPoint" />
          </mxGeometry>
        </mxCell>
        <mxCell id="jziA92S2i_cvQdHo4Uy4-7" value="Сохранение продукта" style="edgeLabel;resizable=0;html=1;;align=center;verticalAlign=middle;" parent="jziA92S2i_cvQdHo4Uy4-6" connectable="0" vertex="1">
          <mxGeometry relative="1" as="geometry" />
        </mxCell>
        <mxCell id="jziA92S2i_cvQdHo4Uy4-8" value="" style="endArrow=classic;html=1;rounded=0;" parent="1" edge="1">
          <mxGeometry relative="1" as="geometry">
            <mxPoint x="730" y="400" as="sourcePoint" />
            <mxPoint x="570" y="400" as="targetPoint" />
          </mxGeometry>
        </mxCell>
        <mxCell id="jziA92S2i_cvQdHo4Uy4-9" value="подтверждение" style="edgeLabel;resizable=0;html=1;;align=center;verticalAlign=middle;" parent="jziA92S2i_cvQdHo4Uy4-8" connectable="0" vertex="1">
          <mxGeometry relative="1" as="geometry" />
        </mxCell>
        <mxCell id="jziA92S2i_cvQdHo4Uy4-10" value="" style="endArrow=classic;html=1;rounded=0;" parent="1" edge="1">
          <mxGeometry relative="1" as="geometry">
            <mxPoint x="570" y="400" as="sourcePoint" />
            <mxPoint x="410" y="400" as="targetPoint" />
          </mxGeometry>
        </mxCell>
        <mxCell id="jziA92S2i_cvQdHo4Uy4-11" value="Сохранение продукта" style="edgeLabel;resizable=0;html=1;;align=center;verticalAlign=middle;" parent="jziA92S2i_cvQdHo4Uy4-10" connectable="0" vertex="1">
          <mxGeometry relative="1" as="geometry" />
        </mxCell>
        <mxCell id="lfQTlrTLow5vk8hMr282-1" value="" style="endArrow=classic;html=1;rounded=0;" edge="1" parent="1">
          <mxGeometry relative="1" as="geometry">
            <mxPoint x="410" y="550" as="sourcePoint" />
            <mxPoint x="260" y="550" as="targetPoint" />
          </mxGeometry>
        </mxCell>
        <mxCell id="lfQTlrTLow5vk8hMr282-2" value="Успех" style="edgeLabel;resizable=0;html=1;;align=center;verticalAlign=middle;" connectable="0" vertex="1" parent="lfQTlrTLow5vk8hMr282-1">
          <mxGeometry relative="1" as="geometry" />
        </mxCell>
        <mxCell id="lfQTlrTLow5vk8hMr282-3" value="" style="endArrow=classic;html=1;rounded=0;" edge="1" parent="1">
          <mxGeometry relative="1" as="geometry">
            <mxPoint x="414" y="584" as="sourcePoint" />
            <mxPoint x="260" y="584" as="targetPoint" />
          </mxGeometry>
        </mxCell>
        <mxCell id="lfQTlrTLow5vk8hMr282-4" value="Ошибка" style="edgeLabel;resizable=0;html=1;;align=center;verticalAlign=middle;" connectable="0" vertex="1" parent="lfQTlrTLow5vk8hMr282-3">
          <mxGeometry relative="1" as="geometry" />
        </mxCell>
        <mxCell id="lfQTlrTLow5vk8hMr282-5" value="" style="endArrow=classic;html=1;rounded=0;" edge="1" parent="1">
          <mxGeometry relative="1" as="geometry">
            <mxPoint x="260" y="560" as="sourcePoint" />
            <mxPoint x="100" y="560" as="targetPoint" />
          </mxGeometry>
        </mxCell>
        <mxCell id="lfQTlrTLow5vk8hMr282-6" value="Успех" style="edgeLabel;resizable=0;html=1;;align=center;verticalAlign=middle;" connectable="0" vertex="1" parent="lfQTlrTLow5vk8hMr282-5">
          <mxGeometry relative="1" as="geometry" />
        </mxCell>
        <mxCell id="lfQTlrTLow5vk8hMr282-8" value="" style="endArrow=classic;html=1;rounded=0;" edge="1" parent="1">
          <mxGeometry relative="1" as="geometry">
            <mxPoint x="260" y="630" as="sourcePoint" />
            <mxPoint x="100" y="630" as="targetPoint" />
          </mxGeometry>
        </mxCell>
        <mxCell id="lfQTlrTLow5vk8hMr282-9" value="Ошибка" style="edgeLabel;resizable=0;html=1;;align=center;verticalAlign=middle;" connectable="0" vertex="1" parent="lfQTlrTLow5vk8hMr282-8">
          <mxGeometry relative="1" as="geometry" />
        </mxCell>
      </root>
    </mxGraphModel>
  </diagram>
</mxfile>
